<svg width="52" height="52" viewBox="0 0 52 52" fill="none" xmlns="http://www.w3.org/2000/svg">
<g clip-path="url(#clip0_356_67)">
<path d="M51.1689 23.9796L32.3898 5.20017C31.8538 4.66411 31.1393 4.36987 30.3775 4.36987C29.6148 4.36987 28.9008 4.66454 28.3647 5.20017L26.6597 6.90559C26.1241 7.44081 25.829 8.15569 25.829 8.91793C25.829 9.67975 26.1241 10.4187 26.6597 10.9539L37.6151 21.9335H2.80925C1.23996 21.9335 0 23.162 0 24.7317V27.1427C0 28.7124 1.23996 30.0648 2.80925 30.0648H37.7394L26.6601 41.1057C26.1245 41.6417 25.8294 42.3372 25.8294 43.0994C25.8294 43.8608 26.1245 44.5664 26.6601 45.102L28.3651 46.8019C28.9012 47.338 29.6152 47.6301 30.3779 47.6301C31.1397 47.6301 31.8542 47.3342 32.3902 46.7981L51.1693 28.0191C51.7066 27.4814 52.0021 26.7635 52 26.0004C52.0017 25.2348 51.7066 24.5165 51.1689 23.9796Z" fill="#4A3DFB"/>
</g>
<defs>
<clipPath id="clip0_356_67">
<rect width="52" height="52" fill="white"/>
</clipPath>
</defs>
</svg>
