<svg width="54" height="54" viewBox="0 0 54 54" fill="none" xmlns="http://www.w3.org/2000/svg">
<path d="M51.594 0H43.2859C42.8487 0 42.4948 0.353897 42.4948 0.791016C42.4948 1.22813 42.8487 1.58203 43.2859 1.58203H51.594C52.0484 1.58203 52.418 1.95158 52.418 2.40601V3.91718H1.58203V2.40601C1.58203 1.95158 1.95158 1.58203 2.40559 1.58203H39.8412C40.2779 1.58203 40.6322 1.22813 40.6322 0.791016C40.6322 0.353897 40.2779 0 39.8412 0H2.40559C1.07899 0 0 1.07941 0 2.40601V36.3731C0 37.4031 0.837982 38.2411 1.86795 38.2411H21.0377V41.5765H16.945C15.983 41.5765 15.2003 42.3593 15.2003 43.3209C15.2003 44.2829 15.983 45.0656 16.945 45.0656H37.055C38.017 45.0656 38.7997 44.2829 38.7997 43.3209C38.7997 42.3593 38.017 41.5765 37.055 41.5765H32.9623V38.2411H35.0956C35.5323 38.2411 35.8866 37.8868 35.8866 37.4501C35.8866 37.0129 35.5323 36.659 35.0956 36.659H1.86795C1.71016 36.659 1.58203 36.5305 1.58203 36.3731V33.0793H52.418V36.3731C52.418 36.5305 52.2898 36.659 52.132 36.659H38.5398C38.1031 36.659 37.7487 37.0129 37.7487 37.4501C37.7487 37.8868 38.1031 38.2411 38.5398 38.2411H52.132C53.162 38.2411 54 37.4031 54 36.3731V2.40601C54 1.07941 52.921 0 51.594 0V0ZM37.2177 43.3209C37.2177 43.4107 37.1448 43.4836 37.055 43.4836H16.945C16.8552 43.4836 16.7823 43.4107 16.7823 43.3209C16.7823 43.2315 16.8552 43.1586 16.945 43.1586H37.055C37.1448 43.1586 37.2177 43.2315 37.2177 43.3209ZM31.3802 41.5765H22.6198V38.2411H31.3802V41.5765ZM1.58203 31.4973V5.49921H52.418V31.4973H1.58203Z" fill="black"/>
<path d="M31.4441 10.1777C31.1343 9.85843 30.6387 9.69446 30.2036 9.69446H6.26221C5.25943 9.69446 4.4165 10.5382 4.4165 11.5402V26.1142C4.4165 27.1318 5.2446 27.9599 6.26221 27.9599H21.6487C22.0854 27.9599 22.4397 27.6056 22.4397 27.1689C22.4397 26.7318 22.0854 26.3779 21.6487 26.3779H6.26221C6.11678 26.3779 5.99854 26.2596 5.99854 26.1142V11.9315L17.2371 19.129C17.5395 19.3226 17.886 19.4194 18.2325 19.4194C18.579 19.4194 18.9255 19.3226 19.2279 19.129L30.4673 11.9311V26.1142C30.4673 26.2596 30.349 26.3779 30.2036 26.3779H25.0933C24.6566 26.3779 24.3023 26.7318 24.3023 27.1689C24.3023 27.6056 24.6566 27.9599 25.0933 27.9599H30.2036C31.2212 27.9599 32.0493 27.1318 32.0493 26.1142V11.5402C32.0493 11.0005 31.8149 10.5155 31.4441 10.1777ZM18.3746 17.7966C18.2881 17.8518 18.1765 17.8522 18.09 17.7966L7.90892 11.2765H28.5557L18.3746 17.7966Z" fill="black"/>
<path d="M44.1741 23.604H47.0712C47.5079 23.604 47.8622 23.2497 47.8622 22.813C47.8622 22.3759 47.5079 22.022 47.0712 22.022H44.1741C43.737 22.022 43.3831 22.3759 43.3831 22.813C43.3831 23.2497 43.737 23.604 44.1741 23.604Z" fill="black"/>
<path d="M48.7933 24.1194H44.1741C43.737 24.1194 43.3831 24.4737 43.3831 24.9104C43.3831 25.3475 43.737 25.7014 44.1741 25.7014H48.7933C49.23 25.7014 49.5843 25.3475 49.5843 24.9104C49.5843 24.4737 49.23 24.1194 48.7933 24.1194Z" fill="black"/>
<path d="M48.7933 26.2172H44.1741C43.737 26.2172 43.3831 26.5711 43.3831 27.0082C43.3831 27.4454 43.737 27.7993 44.1741 27.7993H48.7933C49.23 27.7993 49.5843 27.4454 49.5843 27.0082C49.5843 26.5711 49.23 26.2172 48.7933 26.2172Z" fill="black"/>
<path d="M40.2338 22.022H38.4289C37.2469 22.022 36.2849 22.9836 36.2849 24.166V25.9705C36.2849 27.1525 37.2469 28.1144 38.4289 28.1144H40.9536C41.3907 28.1144 41.7446 27.7605 41.7446 27.3234C41.7446 26.8863 41.3907 26.5324 40.9536 26.5324H38.4289C38.1191 26.5324 37.8669 26.2803 37.8669 25.9705V24.166C37.8669 23.8557 38.1191 23.604 38.4289 23.604H40.2338C40.5436 23.604 40.7953 23.8561 40.7953 24.166V24.4712H39.9891C39.8474 24.2591 39.6055 24.1194 39.3311 24.1194C38.8944 24.1194 38.5401 24.4737 38.5401 24.9104V25.2623C38.5401 25.699 38.8944 26.0533 39.3311 26.0533H41.5864C42.0235 26.0533 42.3774 25.699 42.3774 25.2623V24.166C42.3774 22.9836 41.4158 22.022 40.2338 22.022Z" fill="black"/>
<path d="M44.1741 11.0034H47.0712C47.5079 11.0034 47.8622 10.6495 47.8622 10.2123C47.8622 9.77563 47.5079 9.42133 47.0712 9.42133H44.1741C43.737 9.42133 43.3831 9.77563 43.3831 10.2123C43.3831 10.6495 43.737 11.0034 44.1741 11.0034Z" fill="black"/>
<path d="M44.1741 13.1012H48.7933C49.23 13.1012 49.5843 12.7469 49.5843 12.3102C49.5843 11.8731 49.23 11.5192 48.7933 11.5192H44.1741C43.737 11.5192 43.3831 11.8731 43.3831 12.3102C43.3831 12.7469 43.737 13.1012 44.1741 13.1012Z" fill="black"/>
<path d="M40.2338 9.42133H38.4289C37.2469 9.42133 36.2849 10.3833 36.2849 11.5653V13.3702C36.2849 14.5522 37.2469 15.5142 38.4289 15.5142H40.9536C41.3907 15.5142 41.7446 15.1599 41.7446 14.7232C41.7446 14.2861 41.3907 13.9322 40.9536 13.9322H38.4289C38.1191 13.9322 37.8669 13.6796 37.8669 13.3702V11.5653C37.8669 11.2555 38.1191 11.0034 38.4289 11.0034H40.2338C40.5436 11.0034 40.7953 11.2555 40.7953 11.5653V11.871H39.9891C39.8474 11.6588 39.6055 11.5192 39.3311 11.5192C38.8944 11.5192 38.5401 11.8731 38.5401 12.3102V12.662C38.5401 13.0987 38.8944 13.453 39.3311 13.453H41.5864C42.0235 13.453 42.3774 13.0987 42.3774 12.662V11.5653C42.3774 10.3833 41.4158 9.42133 40.2338 9.42133Z" fill="black"/>
<path d="M38.6518 20.2183C38.8541 20.2183 39.0568 20.1412 39.2113 19.9867L40.5297 18.668C40.8391 18.359 40.8391 17.8584 40.5301 17.5494C40.2211 17.2404 39.7201 17.2404 39.4115 17.5494L38.6518 18.3087L37.8925 17.5494C37.5839 17.2404 37.083 17.2404 36.774 17.5494C36.465 17.8584 36.465 18.3594 36.774 18.668L38.0927 19.9867C38.2468 20.1408 38.4495 20.2183 38.6518 20.2183Z" fill="black"/>
<path d="M8.21912 23.2707C7.782 23.2707 7.4281 23.6246 7.4281 24.0617C7.4281 24.4984 7.782 24.8527 8.21912 24.8527H8.27226C8.70938 24.8527 9.06328 24.4984 9.06328 24.0617C9.06328 23.6246 8.70938 23.2707 8.27226 23.2707H8.21912Z" fill="black"/>
<path d="M10.4299 23.2707C9.99275 23.2707 9.63885 23.6246 9.63885 24.0617C9.63885 24.4984 9.99275 24.8527 10.4299 24.8527H15.3074C15.7441 24.8527 16.0984 24.4984 16.0984 24.0617C16.0984 23.6246 15.7441 23.2707 15.3074 23.2707H10.4299Z" fill="black"/>
</svg>
