<svg width="54" height="54" viewBox="0 0 54 54" fill="none" xmlns="http://www.w3.org/2000/svg">
<g clip-path="url(#clip0_313_153)">
<path d="M4.83224 3.84589C4.23033 3.84589 3.74048 4.33574 3.74048 4.93765V36.8494C3.74048 37.4513 4.23033 37.9411 4.83224 37.9411H49.1678C49.7698 37.9411 50.2596 37.4513 50.2596 36.8494C50.2596 35.5046 50.2596 6.30627 50.2596 4.93765C50.2596 4.33574 49.7698 3.84589 49.1678 3.84589C47.8915 3.84589 5.39008 3.84589 4.83224 3.84589ZM48.6776 7.58632H11.0409V5.42792H48.6776V7.58632ZM5.32251 5.42792H9.45886V7.58632H5.32251V5.42792ZM5.32251 36.3591V9.16835H48.6776V36.3591H5.32251Z" fill="black"/>
<path d="M23.9332 12.0263H15.2753C14.8382 12.0263 14.4843 12.3806 14.4843 12.8177C14.4843 13.2544 14.8382 13.6087 15.2753 13.6087H23.9332C24.3703 13.6087 24.7246 13.2544 24.7246 12.8177C24.7246 12.3806 24.3703 12.0263 23.9332 12.0263Z" fill="black"/>
<path d="M23.9332 15.2473H15.2753C14.8382 15.2473 14.4843 15.6016 14.4843 16.0383C14.4843 16.4754 14.8382 16.8297 15.2753 16.8297H23.9332C24.3703 16.8297 24.7246 16.4754 24.7246 16.0383C24.7246 15.6016 24.3703 15.2473 23.9332 15.2473Z" fill="black"/>
<path d="M23.9332 20.4012H15.2753C14.8382 20.4012 14.4843 20.7551 14.4843 21.1922C14.4843 21.6293 14.8382 21.9832 15.2753 21.9832H23.9332C24.3703 21.9832 24.7246 21.6293 24.7246 21.1922C24.7246 20.7551 24.3703 20.4012 23.9332 20.4012Z" fill="black"/>
<path d="M23.9332 23.6221H15.2753C14.8382 23.6221 14.4843 23.976 14.4843 24.4131C14.4843 24.8503 14.8382 25.2042 15.2753 25.2042H23.9332C24.3703 25.2042 24.7246 24.8503 24.7246 24.4131C24.7246 23.976 24.3703 23.6221 23.9332 23.6221Z" fill="black"/>
<path d="M23.9332 28.7761H15.2753C14.8382 28.7761 14.4843 29.13 14.4843 29.5671C14.4843 30.0038 14.8382 30.3581 15.2753 30.3581H23.9332C24.3703 30.3581 24.7246 30.0038 24.7246 29.5671C24.7246 29.13 24.3703 28.7761 23.9332 28.7761Z" fill="black"/>
<path d="M23.9332 31.997H15.2753C14.8382 31.997 14.4843 32.3509 14.4843 32.788C14.4843 33.2247 14.8382 33.579 15.2753 33.579H23.9332C24.3703 33.579 24.7246 33.2247 24.7246 32.788C24.7246 32.3509 24.3703 31.997 23.9332 31.997Z" fill="black"/>
<path d="M11.1389 12.3197L9.70972 13.7488L9.00935 13.0485C8.70036 12.7395 8.19938 12.7395 7.8908 13.0485C7.58181 13.3575 7.58181 13.8584 7.8908 14.167L9.15025 15.4269C9.45924 15.7355 9.96021 15.7355 10.2692 15.4269L12.2575 13.4382C12.5664 13.1292 12.5664 12.6282 12.2575 12.3197C11.9485 12.0107 11.4479 12.0107 11.1389 12.3197Z" fill="black"/>
<path d="M11.1389 20.6941L9.70972 22.1233L9.00935 21.4229C8.70036 21.1139 8.19938 21.1139 7.8908 21.4229C7.58181 21.7319 7.58181 22.2329 7.8908 22.5419L9.15025 23.8013C9.45924 24.1103 9.96021 24.1103 10.2692 23.8013L12.2575 21.8131C12.5664 21.5041 12.5664 21.0031 12.2575 20.6941C11.9485 20.3855 11.4479 20.3855 11.1389 20.6941Z" fill="black"/>
<path d="M11.1389 29.069L9.70972 30.4982L9.00935 29.7978C8.70036 29.4888 8.19938 29.4888 7.8908 29.7978C7.58181 30.1068 7.58181 30.6078 7.8908 30.9163L9.15025 32.1762C9.45924 32.4852 9.96021 32.4852 10.2692 32.1762L12.2575 30.1879C12.5664 29.879 12.5664 29.378 12.2575 29.069C11.9485 28.7604 11.4479 28.7604 11.1389 29.069Z" fill="black"/>
<path d="M44.135 12.0263H35.4767C35.04 12.0263 34.6857 12.3806 34.6857 12.8177C34.6857 13.2544 35.04 13.6087 35.4767 13.6087H44.135C44.5717 13.6087 44.926 13.2544 44.926 12.8177C44.926 12.3806 44.5717 12.0263 44.135 12.0263Z" fill="black"/>
<path d="M44.135 15.2473H35.4767C35.04 15.2473 34.6857 15.6016 34.6857 16.0383C34.6857 16.4754 35.04 16.8297 35.4767 16.8297H44.135C44.5717 16.8297 44.926 16.4754 44.926 16.0383C44.926 15.6016 44.5717 15.2473 44.135 15.2473Z" fill="black"/>
<path d="M44.135 20.4012H35.4767C35.04 20.4012 34.6857 20.7551 34.6857 21.1922C34.6857 21.6293 35.04 21.9832 35.4767 21.9832H44.135C44.5717 21.9832 44.926 21.6293 44.926 21.1922C44.926 20.7551 44.5717 20.4012 44.135 20.4012Z" fill="black"/>
<path d="M44.135 23.6221H35.4767C35.04 23.6221 34.6857 23.976 34.6857 24.4131C34.6857 24.8503 35.04 25.2042 35.4767 25.2042H44.135C44.5717 25.2042 44.926 24.8503 44.926 24.4131C44.926 23.976 44.5717 23.6221 44.135 23.6221Z" fill="black"/>
<path d="M44.135 28.7761H35.4767C35.04 28.7761 34.6857 29.13 34.6857 29.5671C34.6857 30.0038 35.04 30.3581 35.4767 30.3581H44.135C44.5717 30.3581 44.926 30.0038 44.926 29.5671C44.926 29.13 44.5717 28.7761 44.135 28.7761Z" fill="black"/>
<path d="M44.135 31.997H35.4767C35.04 31.997 34.6857 32.3509 34.6857 32.788C34.6857 33.2247 35.04 33.579 35.4767 33.579H44.135C44.5717 33.579 44.926 33.2247 44.926 32.788C44.926 32.3509 44.5717 31.997 44.135 31.997Z" fill="black"/>
<path d="M31.3403 12.3197L29.9111 13.7488L29.2112 13.0485C28.9022 12.7395 28.4012 12.7395 28.0922 13.0485C27.7832 13.3575 27.7832 13.858 28.0922 14.167L29.3521 15.4269C29.6611 15.7355 30.1616 15.7355 30.4706 15.4269L32.4589 13.4382C32.7679 13.1292 32.7679 12.6282 32.4589 12.3197C32.1503 12.0107 31.6493 12.0107 31.3403 12.3197Z" fill="black"/>
<path d="M30.2757 20.4626C28.9437 20.4626 27.8606 21.5461 27.8606 22.8777C27.8606 24.2092 28.9437 25.2927 30.2757 25.2927C31.6072 25.2927 32.6907 24.2092 32.6907 22.8777C32.6907 21.5461 31.6072 20.4626 30.2757 20.4626ZM30.2757 23.7107C29.8163 23.7107 29.4426 23.337 29.4426 22.8781C29.4426 22.4187 29.8163 22.045 30.2757 22.045C30.735 22.045 31.1083 22.4187 31.1083 22.8781C31.1083 23.337 30.735 23.7107 30.2757 23.7107Z" fill="black"/>
<path d="M30.2757 28.8375C28.9437 28.8375 27.8606 29.9206 27.8606 31.2525C27.8606 32.5841 28.9437 33.6676 30.2757 33.6676C31.6072 33.6676 32.6907 32.5841 32.6907 31.2525C32.6907 29.921 31.6072 28.8375 30.2757 28.8375ZM30.2757 32.0856C29.8163 32.0856 29.4426 31.7119 29.4426 31.2525C29.4426 30.7932 29.8163 30.4195 30.2757 30.4195C30.735 30.4195 31.1083 30.7932 31.1083 31.2525C31.1083 31.7119 30.735 32.0856 30.2757 32.0856Z" fill="black"/>
<path d="M49.8426 0.105469H4.15736C1.86507 0.105469 0 1.97054 0 4.26283V37.5242C0 39.8165 1.86507 41.6816 4.15736 41.6816H20.6158V45.4055H18.031C16.8713 45.4055 15.9278 46.349 15.9278 47.5087V48.6944C15.9278 49.8542 16.8713 50.7976 18.031 50.7976H25.1543C25.591 50.7976 25.9453 50.4433 25.9453 50.0062C25.9453 49.5695 25.591 49.2152 25.1543 49.2152H18.031C17.7439 49.2152 17.5103 48.9816 17.5103 48.6944V47.5087C17.5103 47.2212 17.7439 46.9876 18.031 46.9876H35.969C36.2561 46.9876 36.4897 47.2216 36.4897 47.5087V48.6944C36.4897 48.9816 36.2561 49.2152 35.969 49.2152H28.8457C28.4086 49.2152 28.0547 49.5695 28.0547 50.0062C28.0547 50.4433 28.4086 50.7976 28.8457 50.7976H35.969C37.1287 50.7976 38.0717 49.8542 38.0717 48.6944V47.5087C38.0717 46.349 37.1287 45.4055 35.969 45.4055H33.3842V41.6816H49.8426C52.1349 41.6816 54 39.8165 54 37.5242V23.0997C54 22.6626 53.6457 22.3087 53.209 22.3087C52.7719 22.3087 52.418 22.6626 52.418 23.0997V37.5242C52.418 38.9443 51.2623 40.0991 49.8426 40.0991C48.4427 40.0991 5.23553 40.0991 4.15736 40.0991C2.73724 40.0991 1.58203 38.9443 1.58203 37.5242V4.26283C1.58203 2.84271 2.73724 1.6875 4.15736 1.6875H49.8426C51.2628 1.6875 52.418 2.84271 52.418 4.26283V19.4079C52.418 19.845 52.7719 20.1989 53.209 20.1989C53.6461 20.1989 54 19.845 54 19.4079V4.26283C54 1.97054 52.1349 0.105469 49.8426 0.105469ZM31.8021 41.6816V45.4055H22.1979V41.6816H31.8021Z" fill="black"/>
</g>
<defs>
<clipPath id="clip0_313_153">
<rect width="54" height="54" fill="white"/>
</clipPath>
</defs>
</svg>
