<svg width="58" height="58" viewBox="0 0 58 58" fill="none" xmlns="http://www.w3.org/2000/svg">
<g clip-path="url(#clip0_313_123)">
<path d="M29 26.1C28.8588 26.1 28.7187 26.0691 28.5882 26.0082L12.1548 18.2748C11.8165 18.1153 11.6 17.7741 11.6 17.4C11.6 17.0259 11.8165 16.6847 12.1548 16.5252L28.5882 8.79183C28.8492 8.66906 29.1508 8.66906 29.4118 8.79183L45.8451 16.5252C46.1834 16.6847 46.4 17.0259 46.4 17.4C46.4 17.7741 46.1834 18.1153 45.8451 18.2748L29.4118 26.0082C29.2813 26.0691 29.1411 26.1 29 26.1ZM14.8373 17.4L29 24.0652L43.1626 17.4L29 10.7348L14.8373 17.4Z" fill="black"/>
<path d="M29 33.8333C28.8521 33.8333 28.7033 33.7995 28.5679 33.7318L16.9679 27.9318C16.6402 27.7675 16.4333 27.433 16.4333 27.0667V19.6746C16.4333 19.344 16.6025 19.0356 16.8819 18.8587C17.1613 18.6808 17.5121 18.6605 17.8108 18.7997L29 24.0652L40.1882 18.7997C40.4879 18.6596 40.8388 18.6808 41.1172 18.8587C41.3975 19.0356 41.5667 19.344 41.5667 19.6746V27.0667C41.5667 27.433 41.3598 27.7675 41.0321 27.9318L29.4321 33.7318C29.2968 33.7995 29.1479 33.8333 29 33.8333ZM18.3667 26.4693L29 31.7859L39.6334 26.4693V21.198L29.4118 26.0082C29.1508 26.1309 28.8492 26.1309 28.5882 26.0082L18.3667 21.198V26.4693Z" fill="black"/>
<path d="M45.4333 18.3667H29C28.4664 18.3667 28.0333 17.9336 28.0333 17.4C28.0333 16.8664 28.4664 16.4333 29 16.4333H45.4333C45.9669 16.4333 46.4 16.8664 46.4 17.4C46.4 17.9336 45.9669 18.3667 45.4333 18.3667Z" fill="black"/>
<path d="M45.4333 27.0667C44.8997 27.0667 44.4667 26.6336 44.4667 26.1V17.4C44.4667 16.8664 44.8997 16.4333 45.4333 16.4333C45.967 16.4333 46.4 16.8664 46.4 17.4V26.1C46.4 26.6336 45.967 27.0667 45.4333 27.0667Z" fill="black"/>
<path d="M29 20.3C28.4664 20.3 28.0333 19.8669 28.0333 19.3333V15.4667C28.0333 14.9331 28.4664 14.5 29 14.5C29.5336 14.5 29.9666 14.9331 29.9666 15.4667V19.3333C29.9666 19.8669 29.5336 20.3 29 20.3Z" fill="black"/>
<path d="M43.499 29.9667C43.3154 29.9667 43.1288 29.9145 42.9635 29.8043C42.5198 29.5085 42.3999 28.9082 42.6957 28.4635L44.6291 25.5635C44.9248 25.1188 45.5242 24.998 45.9698 25.2957C46.4135 25.5915 46.5334 26.1918 46.2376 26.6365L44.3043 29.5365C44.1177 29.8159 43.8113 29.9667 43.499 29.9667Z" fill="black"/>
<path d="M47.3676 29.9667C47.0554 29.9667 46.749 29.8159 46.5624 29.5365L44.6291 26.6365C44.3333 26.1928 44.4531 25.5915 44.8968 25.2957C45.3405 24.998 45.9408 25.1188 46.2376 25.5635L48.1709 28.4635C48.4667 28.9072 48.3469 29.5085 47.9032 29.8043C47.7379 29.9145 47.5513 29.9667 47.3676 29.9667Z" fill="black"/>
<path d="M29 29C28.4664 29 28.0333 28.5669 28.0333 28.0333V25.1333C28.0333 24.5997 28.4664 24.1667 29 24.1667C29.5336 24.1667 29.9666 24.5997 29.9666 25.1333V28.0333C29.9666 28.5669 29.5336 29 29 29Z" fill="black"/>
<path d="M57.0333 37.7H0.966667C0.433067 37.7 0 37.2669 0 36.7333V4.8343C0 2.70183 1.73517 0.966665 3.86763 0.966665H54.1324C56.2648 0.966665 58 2.70183 58 4.8343V36.7333C58 37.2669 57.5669 37.7 57.0333 37.7ZM1.93333 35.7667H56.0667V4.8343C56.0667 3.7671 55.1996 2.9 54.1324 2.9H3.86763C2.80043 2.9 1.93333 3.7671 1.93333 4.8343V35.7667Z" fill="black"/>
<path d="M54.1324 45.4333H3.86763C1.73517 45.4333 0 43.6982 0 41.5657V36.7333C0 36.1997 0.433067 35.7667 0.966667 35.7667H57.0333C57.5669 35.7667 58 36.1997 58 36.7333V41.5657C58 43.6982 56.2648 45.4333 54.1324 45.4333ZM1.93333 37.7V41.5657C1.93333 42.6329 2.80043 43.5 3.86763 43.5H54.1324C55.1996 43.5 56.0667 42.6329 56.0667 41.5657V37.7H1.93333Z" fill="black"/>
<path d="M31.9 41.5667H26.1C25.5664 41.5667 25.1334 41.1336 25.1334 40.6C25.1334 40.0664 25.5664 39.6333 26.1 39.6333H31.9C32.4336 39.6333 32.8667 40.0664 32.8667 40.6C32.8667 41.1336 32.4336 41.5667 31.9 41.5667Z" fill="black"/>
<path d="M53.1666 37.7H4.8333C4.2997 37.7 3.86664 37.2669 3.86664 36.7333V5.8C3.86664 5.2664 4.2997 4.83333 4.8333 4.83333H53.1666C53.7002 4.83333 54.1333 5.2664 54.1333 5.8V36.7333C54.1333 37.2669 53.7002 37.7 53.1666 37.7ZM5.79997 35.7667H52.2V6.76667H5.79997V35.7667Z" fill="black"/>
<path d="M41.5667 57.0333H16.4333C14.8345 57.0333 13.5333 55.7322 13.5333 54.1333C13.5333 52.5345 14.8345 51.2333 16.4333 51.2333H41.5667C43.1655 51.2333 44.4667 52.5345 44.4667 54.1333C44.4667 55.7322 43.1655 57.0333 41.5667 57.0333ZM16.4333 53.1667C15.9007 53.1667 15.4667 53.6007 15.4667 54.1333C15.4667 54.666 15.9007 55.1 16.4333 55.1H41.5667C42.0993 55.1 42.5333 54.666 42.5333 54.1333C42.5333 53.6007 42.0993 53.1667 41.5667 53.1667H16.4333Z" fill="black"/>
<path d="M39.6334 53.1667H18.3667C17.8331 53.1667 17.4 52.7336 17.4 52.2C17.4 51.6664 17.8331 51.2333 18.3667 51.2333C21.5741 51.2333 23.2 48.9568 23.2 44.4667C23.2 43.9331 23.6331 43.5 24.1667 43.5H33.8334C34.367 43.5 34.8 43.9331 34.8 44.4667C34.8 48.9568 36.426 51.2333 39.6334 51.2333C40.167 51.2333 40.6 51.6664 40.6 52.2C40.6 52.7336 40.167 53.1667 39.6334 53.1667ZM23.0753 51.2333H34.9257C33.7348 49.9148 33.0339 47.9515 32.8938 45.4333H25.1073C24.9661 47.9515 24.2663 49.9148 23.0753 51.2333Z" fill="black"/>
</g>
<defs>
<clipPath id="clip0_313_123">
<rect width="58" height="58" fill="white"/>
</clipPath>
</defs>
</svg>
