<svg width="50" height="50" viewBox="0 0 50 50" fill="none" xmlns="http://www.w3.org/2000/svg">
<g clip-path="url(#clip0_313_82)">
<path d="M24.9998 0C11.1928 0 0 11.1928 0 24.9998C0 38.8069 11.1928 50.0002 24.9998 50.0002C38.8069 50.0002 50.0002 38.8069 50.0002 24.9998C49.9846 11.1992 38.801 0.0155639 24.9998 0V0ZM24.9998 47.4999C12.5734 47.4999 2.49985 37.4263 2.49985 24.9998C2.49985 12.5734 12.5734 2.49985 24.9998 2.49985C37.4263 2.49985 47.4999 12.5734 47.4999 24.9998C47.4857 37.4204 37.4204 47.4857 24.9998 47.4999Z" fill="#7B7272"/>
<path d="M22.0729 15.309C21.5529 14.8544 20.7632 14.9075 20.3087 15.4271C19.8546 15.9471 19.9077 16.7368 20.4272 17.1913L29.3518 24.9999L20.4268 32.8089C19.9068 33.2634 19.8541 34.0531 20.3082 34.5726C20.7628 35.0926 21.5524 35.1457 22.0724 34.6912L32.0723 25.941C32.3437 25.7039 32.4994 25.3606 32.4994 24.9999C32.4994 24.6391 32.3437 24.2963 32.0723 24.0587L22.0729 15.309Z" fill="#7B7272"/>
</g>
<defs>
<clipPath id="clip0_313_82">
<rect width="50" height="50" fill="white"/>
</clipPath>
</defs>
</svg>
