<svg width="50" height="50" viewBox="0 0 50 50" fill="none" xmlns="http://www.w3.org/2000/svg">
<g clip-path="url(#clip0_313_82)">
<path d="M25.0002 0C38.8072 0 50 11.1928 50 24.9998C50 38.8069 38.8072 50.0002 25.0002 50.0002C11.1931 50.0002 -0.000156403 38.8069 -0.000156403 24.9998C0.0154076 11.1992 11.199 0.0155639 25.0002 0V0ZM25.0002 47.4999C37.4266 47.4999 47.5002 37.4263 47.5002 24.9998C47.5002 12.5734 37.4266 2.49985 25.0002 2.49985C12.5737 2.49985 2.50015 12.5734 2.50015 24.9998C2.51434 37.4204 12.5796 47.4857 25.0002 47.4999Z" fill="#7B7272"/>
<path d="M27.927 15.309C28.447 14.8544 29.2366 14.9075 29.6912 15.4271C30.1453 15.9471 30.0922 16.7368 29.5726 17.1913L20.6481 24.9999L29.5731 32.8089C30.0931 33.2634 30.1458 34.0531 29.6917 34.5726C29.2371 35.0926 28.4475 35.1457 27.9274 34.6912L17.9276 25.941C17.6561 25.7039 17.5005 25.3606 17.5005 24.9999C17.5005 24.6391 17.6561 24.2963 17.9276 24.0587L27.927 15.309Z" fill="#7B7272"/>
</g>
<defs>
<clipPath id="clip0_313_82">
<rect width="50" height="50" fill="white" transform="matrix(-1 0 0 1 50 0)"/>
</clipPath>
</defs>
</svg>
